<svg width="80" height="80" viewBox="0 0 80 80" fill="none" xmlns="http://www.w3.org/2000/svg">
<circle cx="40" cy="40" r="40" fill="#FE2C55"/>
<path d="M59.0472 51.1156L58.0751 50.7528C57.589 50.5109 56.9409 50.5109 56.4549 50.7528L52.2423 52.325L39.9287 56.9206L23.5645 50.7528C23.0784 50.5109 22.4303 50.5109 21.9443 50.7528L20.9721 51.1156C19.676 51.5994 19.676 52.9297 20.9721 53.4134L39.1186 60.1859C39.6046 60.4278 40.2527 60.4278 40.7388 60.1859L58.8852 53.4134C60.3434 52.9297 60.3434 51.5994 59.0472 51.1156Z" fill="white"/>
<path d="M20.9756 28.3887L39.187 34.5294C39.6748 34.7487 40.3252 34.7487 40.813 34.5294L59.0244 28.3887C60.3252 27.95 60.3252 26.7438 59.0244 26.3052L40.813 20.1645C40.3252 19.9452 39.6748 19.9452 39.187 20.1645L20.9756 26.3052C19.6748 26.7438 19.6748 27.95 20.9756 28.3887Z" fill="white"/>
<path d="M36.3265 50.2424V40.7464C36.3265 39.788 37.0099 38.9648 37.9684 38.9594C40.3521 38.9461 44.4898 39.6983 44.4898 45.0817C44.4898 51.1627 39.2101 51.3345 37.1427 51.1686C36.665 51.1303 36.3265 50.7216 36.3265 50.2424Z" stroke="white" stroke-width="3" stroke-linecap="round"/>
<path d="M31 37L26.748 35.1398C24.9803 34.3664 23 35.6615 23 37.591V37.591C23 38.7507 23.6865 39.8003 24.7489 40.2651L29.4 42.3C30.372 42.7252 31 43.6855 31 44.7464V46.442C31 47.8843 29.5197 48.8524 28.1984 48.2743L23 46" stroke="white" stroke-width="3" stroke-linecap="round"/>
<path fill-rule="evenodd" clip-rule="evenodd" d="M58.2076 34.3898C58.699 33.7228 58.5567 32.7838 57.8898 32.2924C57.2229 31.801 56.2838 31.9432 55.7924 32.6102L51.5 38.4356V36C51.5 35.1715 50.8284 34.5 50 34.5C49.1716 34.5 48.5 35.1715 48.5 36V43V49C48.5 49.8284 49.1716 50.5 50 50.5C50.8284 50.5 51.5 49.8284 51.5 49V43.4929L52.3464 42.3442L55.7612 47.3459C56.2283 48.03 57.1616 48.206 57.8458 47.7389C58.53 47.2718 58.7059 46.3385 58.2388 45.6543L54.4837 40.1542C54.4004 40.0322 54.3024 39.9264 54.1935 39.8375L58.2076 34.3898Z" fill="white"/>
</svg>
